<svg xmlns="http://www.w3.org/2000/svg" viewBox="0 0 1300 850"><defs><style>.cls-1,.cls-3{fill:#04b8fc;}.cls-2{fill:#1c438a;}.cls-3{stroke:#1c438a;stroke-width:4px;}.cls-3,.cls-5{stroke-miterlimit:10;}.cls-4{font-size:79px;font-family:Rockwell-ExtraBold, Rockwell Extra Bold;font-weight:800;letter-spacing:0.2em;}.cls-4,.cls-5{fill:#fff;}.cls-5{stroke:#fff;}</style></defs><g id="Capa_2" data-name="Capa 2"><g id="Logo_Final_2" data-name="Logo Final 2"><rect class="cls-1" width="1300" height="850"/><path class="cls-2" d="M1159.78,765.8l-28-19.59a5.83,5.83,0,0,0-8.2,2.28,6.54,6.54,0,0,0,1.61,8.25l21,14.74-21.38,17.06a6.54,6.54,0,0,0-1.2,8.85,5.8,5.8,0,0,0,8.39,1.26l28-22.53a6.54,6.54,0,0,0,1.27-8.84A5.91,5.91,0,0,0,1159.78,765.8Z"/><path class="cls-2" d="M1116.87,749.37l-14.53,48.44a2.79,2.79,0,0,1-2.55,2.1H1099a3,3,0,0,1-1.79-3.7.29.29,0,0,1,0-.09l14.54-48.43a2.82,2.82,0,0,1,2.9-2.77,2.88,2.88,0,0,1,2.59,3.12A3.07,3.07,0,0,1,1116.87,749.37Z"/><path class="cls-2" d="M204.62,787.89,184,773.21l21-17a6.56,6.56,0,0,0,1.18-8.8,5.67,5.67,0,0,0-8.26-1.26L170.4,768.6a6.57,6.57,0,0,0-1.09,8.82,6,6,0,0,0,1.48,1.45l27.53,19.5a5.66,5.66,0,0,0,8.33-.62,6.6,6.6,0,0,0-.59-8.88A5.82,5.82,0,0,0,204.62,787.89Z"/><line class="cls-3" x1="639.77" y1="714.09" x2="639.77" y2="65.64"/><text class="cls-4" transform="translate(227.27 799.04)">DEVELOPMENT</text><path class="cls-5" d="M1162.42,664a50,50,0,0,1-49.84,50.08H712.65a50,50,0,0,1-49.81-48.44v-3.36l.56-546.57a49.84,49.84,0,1,1,99.68,0l-.5,439.65v30.85c0,.48,0,1,0,1.46a26.12,26.12,0,0,0,26.2,26h47.68v-.06l137.85-.16a25.93,25.93,0,0,0,22.13-39.45L821.87,294.39l0,0a49.92,49.92,0,0,1,81.27-58l4.11,6.56L1150,631v0A49.91,49.91,0,0,1,1162.42,664Z"/><path class="cls-5" d="M616.69,115.72,614.31,664a49.84,49.84,0,1,1-99.67,0h0l1.13-282.34v-.53h-.08c-.15-14.19-12.18-25.64-27-25.64a27.2,27.2,0,0,0-23.18,12.63v-.23L260,690.9l0,.05a49.91,49.91,0,1,1-82.08-56.72l0,0L524.09,90l.06-.09.08-.14.12-.18a49.79,49.79,0,0,1,92.34,26.15Z"/></g></g></svg>